<svg width="20" height="20" viewBox="0 0 20 20" fill="none" xmlns="http://www.w3.org/2000/svg">
<path d="M9.99992 16.6663C11.8409 16.6663 13.5075 15.9201 14.714 14.7137C15.9204 13.5073 16.6666 11.8406 16.6666 9.99967C16.6666 8.15874 15.9204 6.49207 14.714 5.28563C13.5075 4.0792 11.8409 3.33301 9.99992 3.33301C8.15899 3.33301 6.49232 4.0792 5.28587 5.28563C4.07945 6.49207 3.33325 8.15874 3.33325 9.99967C3.33325 11.8406 4.07945 13.5073 5.28587 14.7137C6.49232 15.9201 8.15899 16.6663 9.99992 16.6663Z" fill="#FA9A0B" stroke="#FA9A0B" stroke-width="1.33333" stroke-linejoin="round"/>
<path fill-rule="evenodd" clip-rule="evenodd" d="M10.0001 14.3337C10.4603 14.3337 10.8334 13.9606 10.8334 13.5003C10.8334 13.0401 10.4603 12.667 10.0001 12.667C9.53985 12.667 9.16675 13.0401 9.16675 13.5003C9.16675 13.9606 9.53985 14.3337 10.0001 14.3337Z" fill="white"/>
<path d="M10 6V11.3333" stroke="white" stroke-width="1.33333" stroke-linecap="round" stroke-linejoin="round"/>
</svg>
