<svg width="24" height="24" viewBox="0 0 24 24" fill="none" xmlns="http://www.w3.org/2000/svg">
<mask id="mask0_10_3" style="mask-type:luminance" maskUnits="userSpaceOnUse" x="0" y="0" width="24" height="24">
<path fill-rule="evenodd" clip-rule="evenodd" d="M23.998 23.988H0.0298004V0.588499H23.998V23.988Z" fill="white"/>
</mask>
<g mask="url(#mask0_10_3)">
<path fill-rule="evenodd" clip-rule="evenodd" d="M11.112 5.98797L11.618 14.988H13.356L13.862 5.98797H11.112ZM11.332 18.992C11.662 19.278 12.058 19.432 12.498 19.432C12.938 19.432 13.312 19.278 13.62 18.97C13.95 18.662 14.104 18.288 14.104 17.848C14.104 17.386 13.95 17.012 13.62 16.726C13.312 16.418 12.938 16.286 12.498 16.286C12.036 16.286 11.64 16.418 11.332 16.726C11.024 17.012 10.87 17.386 10.87 17.848C10.87 18.31 11.024 18.684 11.332 18.992Z" fill="#12B89A"/>
<path d="M12.498 1.98798C6.699 1.98798 1.99799 6.68899 1.99799 12.488C1.99799 18.287 6.699 22.988 12.498 22.988C18.297 22.988 22.998 18.287 22.998 12.488C22.998 6.68899 18.297 1.98798 12.498 1.98798Z" stroke="#12B89A" stroke-width="2"/>
</g>
</svg>
